# xmcd
#
# Track frame offsets: 
#        150
#        18730
#        45355
#        82798
#        95055
#        114638
#        131545
#        155538
#        185763
#        206890
#        214125
#        234653
#
# Disc length: 3478 seconds
#
# Revision: 7
# Processed by: cddbd v1.5.2PL0 Copyright (c) Steve Scherf et al.
# Submitted via: ExactAudioCopy v0.99pb5
#
DISCID=a70d940c
DTITLE=Faithless - Outrospective
DYEAR=2001
DGENRE=Electronic
TTITLE0=Donny X
TTITLE1=Not Enuff Love
TTITLE2=We Come 1
TTITLE3=Crazy English Summer
TTITLE4=Muhammad Ali
TTITLE5=Machines R Us
TTITLE6=One Step Too Far
TTITLE7=Tarantula
TTITLE8=Giving Myself Away
TTITLE9=Code
TTITLE10=Evergreen
TTITLE11=Liontamer
EXTD=
EXTT0=
EXTT1=
EXTT2=
EXTT3=
EXTT4=
EXTT5=
EXTT6=
EXTT7=
EXTT8=
EXTT9=
EXTT10=
EXTT11=
PLAYORDER=
